# xmcd
#
# Track frame offsets:
# 150
# 10876
# 21812
# 30910
# 42700
# 52977
# 62132
# 72464
# 84944
# 94653
# 105683
# 116203
#
# Disc length: 1689 seconds
#
# Revision: 0
# Processed by: cddbd v1.5.2PL0 Copyright (c) Steve Scherf et al.
# Submitted via: Axialis_AX_CDPlayer 2.6
#
DISCID=9906970c
DTITLE=Joe and Rose Lee Maphis - Mr. and Mrs. Country Music
DYEAR=1900
DGENRE=
TTITLE0=Hoot 'n Annie
TTITLE1=Remember (I'm Just As Close As The Phone)
TTITLE2=Sweet, Sweet Lips
TTITLE3=I've Come To Take You Home
TTITLE4=Lonesome Jailhouse Blues
TTITLE5=Del Rio
TTITLE6=Hot Time In Nashville Tonight
TTITLE7=Please Mr. Mailman
TTITLE8=Love Don't Live Here Anymore
TTITLE9=Separated From Each Other (By A Prison Wall)
TTITLE10=I Don't Love Nobody But You
TTITLE11=Time To Pray
EXTD=
EXTT0=
EXTT1=
EXTT2=
EXTT3=
EXTT4=
EXTT5=
EXTT6=
EXTT7=
EXTT8=
EXTT9=
EXTT10=
EXTT11=
PLAYORDER=
